<mxfile host="app.diagrams.net" modified="2024-01-09T08:16:04.582Z" agent="Mozilla/5.0 (Windows NT 10.0; Win64; x64; rv:121.0) Gecko/20100101 Firefox/121.0" etag="Y_E_GNA9MRwO5VhJOzv9" version="22.1.17" type="github">
  <diagram id="R2lEEEUBdFMjLlhIrx00" name="Page-1">
    <mxGraphModel dx="794" dy="392" grid="1" gridSize="10" guides="1" tooltips="1" connect="1" arrows="1" fold="1" page="1" pageScale="1" pageWidth="850" pageHeight="1100" math="0" shadow="0" extFonts="Permanent Marker^https://fonts.googleapis.com/css?family=Permanent+Marker">
      <root>
        <mxCell id="0" />
        <mxCell id="1" parent="0" />
        <mxCell id="hVYQf4SrXX4T2gI8fLEp-1" value="" style="rounded=0;whiteSpace=wrap;html=1;" vertex="1" parent="1">
          <mxGeometry x="230" y="170" width="400" height="370" as="geometry" />
        </mxCell>
        <mxCell id="hVYQf4SrXX4T2gI8fLEp-2" value="Administrateur" style="shape=umlActor;verticalLabelPosition=bottom;verticalAlign=top;html=1;outlineConnect=0;" vertex="1" parent="1">
          <mxGeometry x="150" y="210" width="30" height="60" as="geometry" />
        </mxCell>
        <mxCell id="hVYQf4SrXX4T2gI8fLEp-3" value="Vétérinaire" style="shape=umlActor;verticalLabelPosition=bottom;verticalAlign=top;html=1;outlineConnect=0;" vertex="1" parent="1">
          <mxGeometry x="150" y="400" width="30" height="60" as="geometry" />
        </mxCell>
        <mxCell id="hVYQf4SrXX4T2gI8fLEp-4" value="Visiteur" style="shape=umlActor;verticalLabelPosition=bottom;verticalAlign=top;html=1;outlineConnect=0;" vertex="1" parent="1">
          <mxGeometry x="670" y="320" width="30" height="60" as="geometry" />
        </mxCell>
        <mxCell id="hVYQf4SrXX4T2gI8fLEp-5" value="Zoo Arcadia" style="text;html=1;strokeColor=none;fillColor=none;align=center;verticalAlign=middle;whiteSpace=wrap;rounded=0;" vertex="1" parent="1">
          <mxGeometry x="540" y="190" width="70" height="30" as="geometry" />
        </mxCell>
        <mxCell id="hVYQf4SrXX4T2gI8fLEp-8" style="edgeStyle=orthogonalEdgeStyle;rounded=0;orthogonalLoop=1;jettySize=auto;html=1;" edge="1" parent="1" source="hVYQf4SrXX4T2gI8fLEp-6" target="hVYQf4SrXX4T2gI8fLEp-4">
          <mxGeometry relative="1" as="geometry" />
        </mxCell>
        <mxCell id="hVYQf4SrXX4T2gI8fLEp-6" value="Inscription" style="ellipse;whiteSpace=wrap;html=1;" vertex="1" parent="1">
          <mxGeometry x="540" y="370" width="70" height="50" as="geometry" />
        </mxCell>
        <mxCell id="hVYQf4SrXX4T2gI8fLEp-10" style="edgeStyle=orthogonalEdgeStyle;rounded=0;orthogonalLoop=1;jettySize=auto;html=1;" edge="1" parent="1" source="hVYQf4SrXX4T2gI8fLEp-9" target="hVYQf4SrXX4T2gI8fLEp-3">
          <mxGeometry relative="1" as="geometry" />
        </mxCell>
        <mxCell id="hVYQf4SrXX4T2gI8fLEp-11" style="edgeStyle=orthogonalEdgeStyle;rounded=0;orthogonalLoop=1;jettySize=auto;html=1;exitX=1;exitY=0.5;exitDx=0;exitDy=0;" edge="1" parent="1" source="hVYQf4SrXX4T2gI8fLEp-9" target="hVYQf4SrXX4T2gI8fLEp-4">
          <mxGeometry relative="1" as="geometry">
            <Array as="points">
              <mxPoint x="320" y="350" />
            </Array>
          </mxGeometry>
        </mxCell>
        <mxCell id="hVYQf4SrXX4T2gI8fLEp-9" value="Afficher les fiches des animaux" style="ellipse;whiteSpace=wrap;html=1;" vertex="1" parent="1">
          <mxGeometry x="250" y="330" width="70" height="50" as="geometry" />
        </mxCell>
        <mxCell id="hVYQf4SrXX4T2gI8fLEp-12" value="remplir les fiches des animaux" style="ellipse;whiteSpace=wrap;html=1;" vertex="1" parent="1">
          <mxGeometry x="250" y="440" width="70" height="50" as="geometry" />
        </mxCell>
        <mxCell id="hVYQf4SrXX4T2gI8fLEp-13" style="edgeStyle=orthogonalEdgeStyle;rounded=0;orthogonalLoop=1;jettySize=auto;html=1;entryX=1;entryY=0.3333333333333333;entryDx=0;entryDy=0;entryPerimeter=0;" edge="1" parent="1" source="hVYQf4SrXX4T2gI8fLEp-12" target="hVYQf4SrXX4T2gI8fLEp-3">
          <mxGeometry relative="1" as="geometry" />
        </mxCell>
        <mxCell id="hVYQf4SrXX4T2gI8fLEp-15" value="" style="edgeStyle=orthogonalEdgeStyle;rounded=0;orthogonalLoop=1;jettySize=auto;html=1;" edge="1" parent="1" source="hVYQf4SrXX4T2gI8fLEp-14" target="hVYQf4SrXX4T2gI8fLEp-2">
          <mxGeometry relative="1" as="geometry" />
        </mxCell>
        <mxCell id="hVYQf4SrXX4T2gI8fLEp-14" value="gérer les comptes du site" style="ellipse;whiteSpace=wrap;html=1;" vertex="1" parent="1">
          <mxGeometry x="250" y="190" width="70" height="50" as="geometry" />
        </mxCell>
      </root>
    </mxGraphModel>
  </diagram>
</mxfile>
